<svg version="1" xmlns="http://www.w3.org/2000/svg" width="933.333" height="933.333" viewBox="0 0 700.000000 700.000000"><path d="M299.5 100.6c-5.5 2.9-9.9 5.8-9.7 6.5.1.6 10.4 20.5 22.8 44.3 19.6 37.5 22.4 43.4 21.6 45.7-.5 1.4-46.3 89.8-101.9 196.5-55.6 106.6-101.8 195.3-102.7 197.1l-1.6 3.1 10.6 5.7c5.8 3.1 11.1 5.4 11.8 5.2.7-.3 45.7-86 100.2-190.6C305 309.6 349.7 224.1 350 224c.3 0 45 85.6 99.5 190.1 54.5 104.6 99.5 190.3 100 190.5.6.2 5.9-2.1 11.8-5.2l10.8-5.5-8-15.2C515 484.9 365 196.3 365 195.6c0-.5 9.6-19.5 21.4-42 11.7-22.6 22.1-42.5 23-44.3l1.6-3.1-10.6-5.7c-5.8-3.1-11.1-5.4-11.8-5.2-.7.3-9.6 16.5-19.7 36.1-10.1 19.5-18.6 35.6-18.9 35.6-.3 0-8.9-16.1-19.1-35.8-10.2-19.6-19.2-35.8-20-35.8-.8-.1-5.9 2.2-11.4 5.2z"/></svg>